/* XPM */
static char *_113dea07f284cc8fb3d571f601396c4lB2tUMFPmD5NwXZZ[] = {
/* columns rows colors chars-per-pixel */
"32 32 216 2 ",
"   c None",
".  c #DB071A",
"X  c #DD0618",
"o  c #DC0619",
"O  c #ED0205",
"+  c #E7030D",
"@  c #E7040D",
"#  c #E8030C",
"$  c #F20103",
"%  c #FB0000",
"&  c red",
"*  c #F7020A",
"=  c #F7020B",
"-  c #F2030D",
";  c #F4030C",
":  c #E20511",
">  c #EF0410",
",  c #ED0512",
"<  c #EC0513",
"1  c #EE0512",
"2  c #EB0514",
"3  c #EC0516",
"4  c #E60618",
"5  c #E2071E",
"6  c #EA0618",
"7  c #E8061A",
"8  c #E0081F",
"9  c #F00410",
"0  c #F00411",
"q  c #CF0A26",
"w  c #D20923",
"e  c #D00A25",
"r  c #D10A25",
"t  c #D00A26",
"y  c #DB0925",
"u  c #DA0A27",
"i  c #DD0924",
"p  c #D50B2A",
"a  c #D30C2C",
"s  c #C30D32",
"d  c #C40D32",
"f  c #CE0D33",
"g  c #CE0D34",
"h  c #99195F",
"j  c #B31243",
"k  c #B51141",
"l  c #B41142",
"z  c #BE1141",
"x  c #BE1143",
"c  c #B91246",
"v  c #BD1144",
"b  c #BC1145",
"n  c #B2134E",
"m  c #B81248",
"M  c #A51552",
"N  c #A61552",
"B  c #A41653",
"V  c #A31655",
"C  c #AA1656",
"Z  c #AB1656",
"A  c #AA1657",
"S  c #A5185A",
"D  c #A1185E",
"F  c #A1195E",
"G  c #A0185F",
"H  c #A1195F",
"J  c #A2195E",
"K  c #971961",
"L  c #951A63",
"P  c #931A65",
"I  c #941A64",
"U  c #981960",
"Y  c #9F1A61",
"T  c #9D1962",
"R  c #9C1A63",
"E  c #9B1A65",
"W  c #9C1A65",
"Q  c #951C6B",
"!  c #961C6A",
"~  c #921D6F",
"^  c #991B68",
"/  c #861E73",
"(  c #831E76",
")  c #841E74",
"_  c #841E75",
"`  c #881D71",
"'  c #8D1E72",
"]  c #8D1E73",
"[  c #8B1E74",
"{  c #8A1E76",
"}  c #8A1F76",
"|  c #8C1E74",
" . c #8D1E74",
".. c #901D71",
"X. c #A01960",
"o. c #84207B",
"O. c #83207D",
"+. c #81217F",
"@. c #82217E",
"#. c #83217F",
"$. c #762283",
"%. c #752285",
"&. c #762284",
"*. c #782282",
"=. c #7E2182",
"-. c #7C2283",
";. c #7E2282",
":. c #7B2285",
">. c #782387",
",. c #7D2284",
"<. c #75248B",
"1. c #72258D",
"2. c #71258E",
"3. c #71258F",
"4. c #72258E",
"5. c #652795",
"6. c #6E2591",
"7. c #63299C",
"8. c #63289D",
"9. c #63299D",
"0. c #562BA5",
"q. c #552BA6",
"w. c #5C2AA5",
"e. c #542BA8",
"r. c #532CA9",
"t. c #552CAA",
"y. c #472FB5",
"u. c #452FB6",
"i. c #482FB4",
"p. c #4830B7",
"a. c #4430B8",
"s. c #4730B8",
"d. c #4730BA",
"f. c #4231BD",
"g. c #4231BE",
"h. c #4830B9",
"j. c #1F3ADF",
"k. c #3733C6",
"l. c #3F32C0",
"z. c #3933C4",
"x. c #3833C5",
"c. c #3B33C5",
"v. c #3C33C4",
"b. c #3533C8",
"n. c #3434C9",
"m. c #3534CB",
"M. c #3635CA",
"N. c #3335CD",
"B. c #3435CC",
"V. c #2A37D3",
"C. c #2F36D0",
"Z. c #2F36D1",
"A. c #2D36D2",
"S. c #2C37D2",
"D. c #2E36D2",
"F. c #2937D4",
"G. c #2938D7",
"H. c #2539DA",
"J. c #2639DA",
"K. c #2739DA",
"L. c #2339DC",
"P. c #2239DD",
"I. c #2139DE",
"U. c #2339DE",
"Y. c #223ADE",
"T. c #233ADE",
"R. c #2439DC",
"E. c #2439DE",
"W. c #2838D8",
"Q. c #3036D0",
"!. c #1C3AE1",
"~. c #1D3AE1",
"^. c #1F3AE1",
"/. c #1C3AE2",
"(. c #1D3AE2",
"). c #1D3BE3",
"_. c #1E3BE2",
"`. c #1B3BE4",
"'. c #1E3BE4",
"]. c #193CE6",
"[. c #183CE7",
"{. c #193CE7",
"}. c #1A3CE6",
"|. c #173CE8",
" X c #173CE9",
".X c #113DED",
"XX c #113EED",
"oX c #113EEE",
"OX c #103EEF",
"+X c #113EEF",
"@X c #0F3EF0",
"#X c #0E3EF1",
"$X c #0F3EF1",
"%X c #0E3FF1",
"&X c #0F3FF1",
"*X c #0D3FF2",
"=X c #0D3FF3",
"-X c #093FF5",
";X c #103EF0",
":X c #203AE0",
">X c #0640F9",
",X c #0740F9",
"<X c #0641F9",
"1X c #0741F9",
"2X c #0541FA",
"3X c #0441FB",
"4X c #0541FB",
"5X c #0640FA",
"6X c #0341FC",
"7X c #0141FE",
"8X c #0142FE",
"9X c #0042FF",
"0X c #0142FF",
"qX c #0045FF",
"wX c #0840F8",
"eX c #004CFF",
/* pixels */
"                                                                ",
"                            Y c a 5 2 ;                         ",
"                      4.,.J n E o.,.;.[ W m                     ",
"                  t.7.4.[       <X;X(.N.s.w.:.W                 ",
"                s.t.7.                      #.~ A x             ",
"            D.c.s.                              A v f i         ",
"          L.D.c.                                  v g i 3       ",
"          L.D.                                        y 3 =     ",
"        |.L.N.                                          6 =     ",
"      =X{.G.                                                    ",
"      =X{.G.  -Xj.                  j d       qXg.h ;           ",
"    <X;X(.    +X(.                  l d w     eXg.J 0           ",
"    <X=XL.  9X.X(.S.              V l d t &     l.J 9           ",
"    <X;X).  6X+X!.S.c.          I M l s t $     M.J 9           ",
"  9X<X+X{.  4X+X!.F.c.          I M l d t :     W.X.9           ",
"  9XwX;X    <X    F.k.i.      ) L M   d t X &   ).X.9           ",
"  9XwX+X    <X    F.k.i.      ( U M     q X &   E.Y 9           ",
"    <X;X{.<X<X      k.u.r.    ) U       q X %     Q 9           ",
"    <X;X`.wX<X      M.u.q.5.&./ U       q X O     [ 1           ",
"    <X;X(.=X9X        s.q.5.&.`         q X #     #.1           ",
"    <X;X(.            s.q.5.&.`           X @ &   #.1           ",
"      =X{.H.            t.5.$.            . + &   | 1           ",
"      =X[.H.                                @ %     1           ",
"        [.E.Q.                                          7 =     ",
"        {.:XQ.                                        y 3 ;     ",
"          L.D.v.                                    g i 3       ",
"            D.c.i.                              A v g i         ",
"              c.d.t.7.                      O.^ Z v             ",
"                  t.7.4.|       9XwXE.M.h.w.<...                ",
"                    7.3.;.S A ] :.6.<.O.!                       ",
"                          ] J x p 8 4                           ",
"                                                                "
};
