/* XPM */
static char *eabd02bbeb104d82dabaf47334518b316RIvPx8I6IeDwQLP[] = {
/* columns rows colors chars-per-pixel */
"64 64 138 2 ",
"   c None",
".  c #7F207A",
"X  c #BF0F38",
"o  c #B7113F",
"O  c #B8113F",
"+  c #DE0617",
"@  c #D9071C",
"#  c #D8081D",
"$  c #ED0207",
"%  c #E5040F",
"&  c #E8030C",
"*  c #F20102",
"=  c #FD0103",
"-  c #F4030C",
";  c #F8020A",
":  c #E40511",
">  c #EC0515",
",  c #E6071C",
"<  c #F20410",
"1  c #CC0B2A",
"2  c #D20923",
"3  c #DF0923",
"4  c #D30C2C",
"5  c #D80B2A",
"6  c #C60D31",
"7  c #CD0D33",
"8  c #C70F39",
"9  c #C80F39",
"0  c #D00C31",
"q  c #C2113E",
"w  c #E00920",
"e  c #9F1758",
"r  c #99195F",
"t  c #A9154E",
"y  c #B11346",
"u  c #BB1245",
"i  c #B6134B",
"p  c #A21756",
"a  c #AC1654",
"s  c #A51759",
"d  c #A91758",
"f  c #A5185C",
"g  c #8A1D6F",
"h  c #921B67",
"j  c #9B1A63",
"k  c #921C6B",
"l  c #981B68",
"z  c #891E73",
"x  c #811F79",
"c  c #891F78",
"v  c #911D70",
"b  c #82207C",
"n  c #C01142",
"m  c #772283",
"M  c #7B2283",
"N  c #73248B",
"B  c #782389",
"V  c #6B2693",
"C  c #63289B",
"Z  c #682899",
"A  c #572BA3",
"S  c #5B2AA3",
"D  c #532DAC",
"F  c #582CA8",
"G  c #472FB5",
"H  c #4A2FB5",
"J  c #502EB0",
"K  c #4231BC",
"L  c #4830B9",
"P  c #602AA1",
"I  c #1F3ADF",
"U  c #3C33C3",
"Y  c #3435CC",
"T  c #2B37D4",
"R  c #2A38D6",
"E  c #2539DA",
"W  c #2838D8",
"Q  c #3036D0",
"!  c #1F3AE0",
"~  c #1E3BE2",
"^  c #1B3BE5",
"/  c #193BE6",
"(  c #1C3BE4",
")  c #1C3BE5",
"_  c #193CE5",
"`  c #1A3CE5",
"'  c #193CE6",
"]  c #1A3CE6",
"[  c #1C3BE4",
"{  c #133DEB",
"}  c #163DE9",
"|  c #153DEA",
" . c #143DEB",
".. c #153DEB",
"X. c #163DEA",
"o. c #133DEC",
"O. c #103EEF",
"+. c #113EEF",
"@. c #133DEC",
"#. c #0F3EF0",
"$. c #0E3EF1",
"%. c #0F3EF1",
"&. c #0E3FF1",
"*. c #0F3FF1",
"=. c #0C3FF3",
"-. c #0D3FF3",
";. c #0B3FF4",
":. c #0C3FF4",
">. c #0C3FF3",
",. c #103EF0",
"<. c #103EF0",
"1. c #203AE0",
"2. c #203AE0",
"3. c #0A40F5",
"4. c #0B40F5",
"5. c #0940F6",
"6. c #0840F7",
"7. c #0A40F6",
"8. c #0C40F4",
"9. c #0940F6",
"0. c #0740F9",
"q. c #0541FA",
"w. c #0441FB",
"e. c #0541FB",
"r. c #0242FD",
"t. c #0142FE",
"y. c #0042FF",
"u. c #0043FF",
"i. c #0242FE",
"p. c #0441FC",
"a. c #0044FF",
"s. c #0045FF",
"d. c #0342FD",
"f. c #0840F8",
"g. c #0840F8",
"h. c #0049FF",
"j. c #802180",
"k. c #802280",
/* pixels */
"                                                                                                                                ",
"                                                                                                                                ",
"                                                                i u n 9 7                                                       ",
"                                                      v l j d a i u n 7 5 3 , > < < -                                           ",
"                                                B b b l l j d n 0 5 4 0           , - = =                                       ",
"                                          Z V N k.k.b v d n                                                                     ",
"                                      F P Z V B B k.v a       4.a.i.<.( R Y U L J F P P Z B                                     ",
"                                    J F P C V N M         h.h.<.] 2.R Q Y U L J S P Z B k.c c v f                               ",
"                                K H J F P Z V                                       V B k.c v j d a i                           ",
"                              U K L D F S                                                 b v j f a i n n                       ",
"                            Y U K H D F                                                       j f a i n 9 0                     ",
"                          Y Y U K L J                                                             a i n 9 0 5 w                 ",
"                      E T Q Y U K                                                                   n n 9 0 5 w ,               ",
"                      E T Q Y U                                                                         9 0 5 w , >             ",
"                    2.E T Q U                                                                             0 5 w , > <           ",
"                  ] 2.E T Y Y                                                                               5 w , > < ;         ",
"                 .] 2.E R Q                                                                                   w w > < ; ;       ",
"              <. .] 2.E R                                                                                       w > < ; ;       ",
"              <. .] ! E T                                                                                           ; ; =       ",
"            8.<.| ] ( E                                                                                                         ",
"            8.<.| ] E W       | X.                                          X 6                                                 ",
"          g.8.<.| ] !       =.| ] E                                     y u X 6 1             8.T D k.a 5 <                     ",
"          g.<.<. .] E     g.=.| ] I W                                   y o X 6 1 2           7.T D k.a 0 -                     ",
"        e.g.8.<.| X.E     7.=.| ] I W                                 a y O O 1 1 2 @         :.T F k.a 5 -                     ",
"        w.;.=.+.| ^     i.7.=.{ ] I E T                             e t y o X 6 1 2 @         =.T F M a 4 -                     ",
"        w.w.=.+.| (     i.7.#.| _ I W T Y                           e t t o X 6 1 2 @ +         T D k.a 4 -                     ",
"        w.;.=.+. .!     w.7.=.+._ I E T Y                         j e t y o X 6 1 2 # +         W D k.a 4 ;                     ",
"      i.i.7.:.+.| !     w.7.+.| _ I W T Y U                       j e t y O X 6 1 2 # +         R D k.a 4 -                     ",
"      i.i.7.:.+.| 2.  i.w.7.<.| _ I W T Y U                     h j e t y o X 6 1 2 @ + :       R D k.a 4 -                     ",
"      i.w.7.:.+. .2.  a.w.7.=.| _ I E Q Y U K                   g r e t y o X 6 1 2 @ + :       R D k.a 4 -                     ",
"      i.w.g.:.+.|     i.w.7.=.    I E T Y U K                 z h r p a y     6 1 2 3 + :         J k.a 4 -                     ",
"      i.w.7.=.+.X.    a.w.8.+.    I E T Y U K G               z h r p t       6 1 2 # : :         J k.a 5 -                     ",
"      i.w.w.=.+.|     i.w.7.<.      E T Y U K H             . . h r p t       6 1 2 # + : &       J k.a 4 -                     ",
"      i.w.7.=.+.|     a.w.7.          T Y U K H D           . g g r p t         1 2 # + : &       J M a 4 -                     ",
"      i.w.;.=.+.| ~   i.w.8.          T Y U K G D           . g h r p           1 2 # + : &       J k.a 4 -                     ",
"      i.i.7.=.+.| 2.  a.w.8.            Y U K G D A       m . g h r e           1 2 # + : &       H M a 4 ;                     ",
"        w.6.;.+.| 2.  a.w.8.            Y U U G D A     N m . g h r             1 2 # + : & *       M a 4 -                     ",
"        w.7.:.+.| 2.  i.w.7.              U K G D A C V N m . g h r             1 2 # + : & $       B a 4 -                     ",
"        w.7.=.+.| !     w.                U K G D A C V N . b g h                 2 # + : & $       B a 4 -                     ",
"        i.7.=.<. .]     i.                  K G D A S V N m . z h                 2 # + : & $       B a 4 -                     ",
"          g.=.+.| ] E   a.                    H D A C V N . x g                   2 @ + : % $ =     N d 4 -                     ",
"          g.=.+.| ] E                         G J A C V N N x                     2 # + : & $ *       d 4 -                     ",
"          g.:.+. .] 2.                          J A C V V . .                       # + : & $ *       d 4 -                     ",
"            :.+.| ] 2.E                           A C V N .                         # + : % $ *       f 4 -                     ",
"            :.+.| ] 2.E                             C V                             3 + : % $ *       f 0 -                     ",
"              <.| ] 2.E T                                                                                                       ",
"              =. .] ! E T                                                                                       , < < ; =       ",
"                 .] ! E W Y                                                                                   3 , > < - =       ",
"                | ] 2.E R Q Y                                                                               5 w w > < ;         ",
"                  ] ( E T Q Y                                                                             0 5 w w > <           ",
"                    2.E T Q U U                                                                         9 0 5 w w <             ",
"                      E T Q Y U K                                                                     n 9 0 5 w >               ",
"                        R Q Y U L L                                                               a i n 9 0 5 w                 ",
"                          Q U U K H J                                                           f a i n 9 0 5                   ",
"                            Y U K L J F P                                                   v f f a u n 9                       ",
"                              U L L J F P P                                           k.j.j.v l f a i n                         ",
"                                L L D F P Z V B           h.8.8.X.2.2.Q Y K L J P P V B k.c l l f a                             ",
"                                    J F S Z Z B k.k.        d.d.e.8.2.R Y U L J F P P V Z B j.                                  ",
"                                        P C V N k.k.b j i               E T Y U L D                                             ",
"                                            V B k.k.b v l f i 7 7                                                               ",
"                                                  k.b v l j f a i n 0 w , > < < ; =                                             ",
"                                                            d a i n n n 0                                                       ",
"                                                                                                                                ",
"                                                                                                                                "
};
