/* XPM */
static char *_354a9925bf7448b907ef871b358af5e9evnscqsPyYLqY0C[] = {
/* columns rows colors chars-per-pixel */
"16 16 73 1 ",
"  c None",
". c #D7071E",
"X c #DB0719",
"o c #DC0619",
"O c #ED0206",
"+ c #F20000",
"@ c #F90000",
"# c #FD0000",
"$ c #EB0514",
"% c #EB0616",
"& c #ED0515",
"* c #F00412",
"= c #DF0821",
"- c #CF0D31",
"; c #CE0D33",
": c #CD0D34",
"> c #C2103F",
", c #C4103D",
"< c #98195F",
"1 c #B21245",
"2 c #B01347",
"3 c #B11348",
"4 c #B5134A",
"5 c #AA1657",
"6 c #AD1554",
"7 c #A3185F",
"8 c #951A63",
"9 c #921B67",
"0 c #991B67",
"q c #921C6D",
"w c #861F79",
"e c #A01960",
"r c #772283",
"t c #742285",
"y c #7E2284",
"u c #6D2691",
"i c #6D2694",
"p c #5E2AA0",
"a c #532CA9",
"s c #502CAB",
"d c #582BA8",
"f c #4A2FB4",
"g c #482FB7",
"h c #4530BA",
"j c #4630BA",
"k c #3633C7",
"l c #3833C4",
"z c #3534C8",
"x c #3235CE",
"c c #3136CE",
"v c #2E36D1",
"b c #2B37D4",
"n c #2A37D5",
"m c #193BE5",
"M c #1A3BE4",
"N c #1C3BE4",
"B c #183CE7",
"V c #193CE7",
"C c #173CE8",
"Z c #163CEA",
"A c #123EED",
"S c #113EEE",
"D c #133EEE",
"F c #0F3EF0",
"G c #4132C0",
"H c #0A40F5",
"J c #0940F6",
"K c #0840F7",
"L c #0640F9",
"P c #0441FB",
"I c #0640FA",
"U c #0641FA",
"Y c #802180",
/* pixels */
"                ",
"      weq04     ",
"    ji    GY6   ",
"   bf        :% ",
"  Bv          * ",
"  N             ",
" IBKB    2@ S%  ",
" KSINz  <2O x=  ",
" KFI z  8 oXp-  ",
" KS  kar9 .+ >  ",
" UB   sr  o@3>  ",
"  B        #    ",
"  Bc          & ",
"   ng       7-  ",
"    ji    dY5   ",
"                "
};
